<?xml version="1.0" encoding="iso-8859-1"?>
<!-- Uploaded to: SVG Repo, www.svgrepo.com, Generator: SVG Repo Mixer Tools -->
<!DOCTYPE svg PUBLIC "-//W3C//DTD SVG 1.1//EN" "http://www.w3.org/Graphics/SVG/1.1/DTD/svg11.dtd">
<svg fill="#000000" version="1.1" id="Capa_1" xmlns="http://www.w3.org/2000/svg" xmlns:xlink="http://www.w3.org/1999/xlink" 
	 width="800px" height="800px" viewBox="0 0 45.675 45.675"
	 xml:space="preserve">
<g>
	<g>
		<path d="M33.62,1.732c-0.054-0.003-0.115-0.003-0.186,0.001c-0.042-0.001-0.087,0.003-0.135,0.009
			c-2.533,0.133-4.708,0.614-6.94,1.87c-0.759,0.426-1.513,1.053-2.122,1.667c-1.542,1.546-4.022-1.61-5.381-2.375
			c-4.078-2.293-9.643-1.285-13.389,1.11c-4.684,2.995-6.026,9.341-5.269,14.497c0.931,6.333,5.522,11.75,9.855,16.125
			c2.795,2.82,6.797,7.164,10.486,8.693c0.174,0.071,0.345,0.135,0.513,0.188c0.288,0.093,0.54,0.155,0.556,0.167
			c0.009,0.007,0.019,0.016,0.028,0.021c0.162,0.116,0.342,0.211,0.534,0.285c0.313,0.12,0.669,0.071,0.771-0.033
			c0.101-0.104,0.633-0.225,1.16-0.391c0.346-0.109,0.694-0.258,1.054-0.453c6.761-3.654,13.592-10.912,17.597-17.426
			c5.427-8.826,3.587-22.533-7.954-23.851C34.249,1.775,33.721,1.736,33.62,1.732z M36.15,3.361
			c-0.046,0.047,0.022,0.069,0.154,0.051c0.134-0.018,0.665,0.116,1.164,0.353c6.953,3.311,7.67,13.405,4.388,20.344
			c-2.452,5.185-6.828,9.456-11.054,13.194c-2.048,1.812-4.08,3.773-6.368,4.34c-0.536,0.133-1.079,0.081-1.193-0.008
			c-0.114-0.088-0.275-0.09-0.359-0.004s-0.603,0.125-1.136-0.021c-0.189-0.052-0.379-0.115-0.572-0.189
			c-0.515-0.201-0.697-0.649-0.443-0.92c0.253-0.271,0.113-0.775-0.308-1.133c-0.031-0.025-0.062-0.052-0.093-0.078
			c-0.421-0.357-1.007-0.412-1.312-0.117c-0.305,0.293-0.905,0.258-1.334-0.088c-0.251-0.203-0.501-0.406-0.749-0.611
			c-0.425-0.352-0.503-0.907-0.178-1.232c0.325-0.328,0.408-0.762,0.186-0.974c-0.222-0.212-0.688-0.122-1.042,0.2
			c-0.354,0.324-0.978,0.293-1.39-0.076c-0.353-0.316-0.703-0.635-1.05-0.956c-0.405-0.375-0.426-0.992-0.051-1.372
			s0.632-0.738,0.573-0.801c-0.059-0.061-0.425,0.186-0.819,0.551c-0.394,0.365-0.941,0.443-1.217,0.173s-0.169-0.794,0.239-1.167
			c0.013-0.012,0.026-0.023,0.039-0.035c0.407-0.373,0.558-0.882,0.337-1.136c-0.22-0.255-0.721-0.16-1.124,0.218
			c-0.036,0.033-0.072,0.066-0.108,0.1c-0.404,0.377-1.044,0.363-1.421-0.041c-0.328-0.353-0.65-0.709-0.966-1.071
			c-0.363-0.416-0.485-0.915-0.283-1.104c0.121-0.113,0.243-0.228,0.366-0.343c0.173-0.18,0.346-0.356,0.519-0.534
			c0.287-0.295,0.381-0.74,0.218-0.994c-0.164-0.254-0.53-0.225-0.823,0.066c-0.179,0.178-0.357,0.354-0.531,0.528
			c-0.127,0.137-0.255,0.274-0.383,0.409c-0.212,0.227-0.642,0.084-0.947-0.325c-0.305-0.409-0.225-1.065,0.166-1.454
			c0.195-0.193,0.391-0.389,0.586-0.583c0.392-0.39,0.698-0.726,0.684-0.751c-0.014-0.025-0.197,0.117-0.41,0.32
			c-0.213,0.203-0.669,0.644-1.014,0.99c-0.344,0.346-0.748,0.449-0.897,0.227c-0.15-0.223,0.051-0.719,0.445-1.107
			c0.225-0.221,0.449-0.441,0.673-0.664c0.393-0.388,0.613-0.904,0.502-1.16c-0.111-0.254-0.51-0.14-0.895,0.256
			c-0.258,0.267-0.516,0.533-0.773,0.799c-0.385,0.396-0.849,0.472-1.031,0.164c-0.182-0.309-0.011-0.883,0.372-1.279
			c0.31-0.318,0.618-0.639,0.925-0.954c0.384-0.397,0.553-1.108,0.399-1.596c-0.154-0.488-0.575-0.575-0.968-0.187
			c-0.383,0.379-0.768,0.759-1.153,1.139c-0.393,0.389-0.903,0.298-1.115-0.211c-0.076-0.182-0.149-0.365-0.22-0.549
			c-0.199-0.515-0.01-1.246,0.394-1.623c0.531-0.496,1.06-0.994,1.589-1.492c0.402-0.379,0.719-0.761,0.707-0.852
			c-0.008-0.056-0.015-0.111-0.019-0.166c0,0,0-0.039,0-0.086c0-0.048-0.314,0.232-0.703,0.625
			c-0.562,0.567-1.124,1.134-1.686,1.702c-0.389,0.392-0.841,0.284-0.978-0.252c-0.004-0.015-0.008-0.03-0.012-0.045
			c-0.136-0.536-0.227-1.024-0.23-1.085c-0.003-0.061,0.306-0.431,0.691-0.826c0.761-0.781,1.519-1.554,2.276-2.328
			c0.387-0.395,0.743-1.145,0.828-1.67s-0.14-0.634-0.536-0.25c-0.835,0.809-1.718,1.666-2.641,2.56
			c-0.396,0.385-0.741,0.265-0.771-0.265c-0.03-0.531,0.265-1.272,0.661-1.657c1.243-1.21,2.517-2.45,3.811-3.709
			c0.396-0.385,0.907-1.105,1.183-1.583c1.207-2.098,2.856-3.606,4.611-4.522c0.489-0.256,1.126-0.631,1.396-0.895
			c0.27-0.263,0.21-0.501-0.133-0.519c-0.202-0.01-0.408-0.016-0.622-0.016c-0.067,0-0.138,0.002-0.208,0.004
			c-0.115,0.004-0.525,0.323-0.917,0.712c-3.079,3.058-6.158,6.115-9.208,9.141c-0.392,0.389-0.711,0.667-0.714,0.621
			c-0.002-0.046,0.037-0.529,0.125-1.075c0.051-0.316,0.112-0.634,0.181-0.953c0.118-0.54,0.561-1.281,0.96-1.664
			c2.112-2.029,4.133-3.969,6.074-5.829c0.398-0.382,0.697-0.686,0.666-0.678C10.1,3.288,9.752,3.604,9.353,3.986
			C7.504,5.759,5.515,7.671,3.421,9.679c-0.398,0.382-0.683,0.545-0.637,0.365C2.811,9.936,2.84,9.827,2.875,9.718
			C4.409,4.919,8.802,2.5,13.725,2.732c3.585,0.169,5.157,2.579,7.85,4.267c0.512,0.321,1.383,0.188,1.946,0.038
			c0.44-0.118,0.819-0.262,1.157-0.426c0.497-0.24,1.013-0.372,1.194-0.202c0.182,0.17,0.624-0.02,0.992-0.432
			c0.414-0.462,0.826-0.924,1.236-1.386c0.367-0.413,0.306-0.6-0.117-0.375c-0.424,0.226-0.422,0.131,0.028-0.189
			c0.975-0.691,2.284-1.245,4.631-1.355c0.943,0.026,1.818,0.142,2.631,0.333C35.81,3.132,36.196,3.314,36.15,3.361z"/>
		<path d="M29.476,5.256c-0.393,0.388-0.391,0.39,0.006,0.005c0.499-0.485,1.003-0.975,1.51-1.467
			c0.396-0.385,0.706-0.696,0.691-0.693c-0.014,0.003-0.344,0.318-0.737,0.707C30.459,4.287,29.97,4.769,29.476,5.256z"/>
		<path d="M34.212,3.549c0.268-0.272,0.435-0.497,0.372-0.502c-0.062-0.005-0.404,0.269-0.764,0.61
			c-0.36,0.341-0.528,0.559-0.373,0.496C33.602,4.09,33.945,3.822,34.212,3.549z"/>
		<path d="M3.173,15.957c-0.825,0.846,0.554-0.488,2.516-2.398c0.396-0.385,0.389-0.391-0.012-0.011
			C4.87,14.315,4.036,15.123,3.173,15.957z"/>
		<path d="M16.097,3.351c-0.019,0.019,0.021,0.029,0.09,0.024c0.068-0.005,0.083-0.019,0.034-0.034
			C16.172,3.327,16.115,3.332,16.097,3.351z"/>
		<path d="M5.95,5.439C5.875,5.515,5.801,5.588,5.727,5.663c-0.123,0.123-0.013,0.02,0.246-0.229
			c0.259-0.248,0.434-0.424,0.39-0.393C6.319,5.072,6.21,5.174,6.117,5.268C6.062,5.324,6.007,5.381,5.95,5.439z"/>
	</g>
</g>
</svg>